<?xml version="1.0" encoding="UTF-8" standalone="no"?>
<svg
   xmlns:dc="http://purl.org/dc/elements/1.1/"
   xmlns:cc="http://creativecommons.org/ns#"
   xmlns:rdf="http://www.w3.org/1999/02/22-rdf-syntax-ns#"
   xmlns:svg="http://www.w3.org/2000/svg"
   xmlns="http://www.w3.org/2000/svg"
   height="85"
   width="85"
   id="svg20"
   xml:space="preserve"
   viewBox="0 0 85 85"
   y="0px"
   x="0px"
   version="1.1"><metadata
     id="metadata26"><rdf:RDF><cc:Work
         rdf:about=""><dc:format>image/svg+xml</dc:format><dc:type
           rdf:resource="http://purl.org/dc/dcmitype/StillImage" /><dc:title></dc:title></cc:Work></rdf:RDF></metadata><defs
     id="defs24" /><path
     id="path2"
     d="M 77.5,0 H 7.5 C 3.358,0 0,3.358 0,7.5 v 70 C 0,81.642 3.358,85 7.5,85 h 70 C 81.642,85 85,81.642 85,77.5 V 7.5 C 85,3.358 81.642,0 77.5,0 Z m 0,77.5 h -70 v -50 h 70 z m 0,-55 h -70 v -15 h 70 z" /><rect
     id="rect4"
     height="5"
     width="5"
     y="12.5"
     x="47.5" /><rect
     id="rect6"
     height="5"
     width="5"
     y="12.5"
     x="57.5" /><rect
     id="rect8"
     height="5"
     width="5"
     y="12.5"
     x="67.5" /><path
     id="path10"
     d="m 22.5,57.5 h 5 v 5 h 5 v -20 h -5 v 10 h -5 v -10 h -5 v 10 c 0,2.757 2.243,5 5,5 z" /><path
     id="path12"
     d="m 57.5,57.5 h 5 v 5 h 5 v -20 h -5 v 10 h -5 v -10 h -5 v 10 c 0,2.757 2.243,5 5,5 z" /><path
     id="path14"
     d="m 42.5,62.5 c 4.136,0 7.5,-3.364 7.5,-7.5 v -5 c 0,-4.136 -3.364,-7.5 -7.5,-7.5 -4.136,0 -7.5,3.364 -7.5,7.5 v 5 c 0,4.136 3.364,7.5 7.5,7.5 z M 40,50 c 0,-1.378 1.122,-2.5 2.5,-2.5 1.378,0 2.5,1.122 2.5,2.5 v 5 c 0,1.378 -1.122,2.5 -2.5,2.5 C 41.122,57.5 40,56.378 40,55 Z" /></svg>